<svg xmlns="http://www.w3.org/2000/svg" viewBox="0 0 1080 1080">
	<defs>
		<clipPath id="a">
			<path d="M0 0h1080v1080H0z" />
		</clipPath>
	</defs>
	<g clip-path="url(#a)" data-name="Web 1920 – 1" fill="#FFFFFF">
		<g aria-label="dev">
			<path d="M176.699 117.792q35.948 0 66.22 17.974 30.745 17.974 48.719 48.719 17.974 30.272 17.974 66.22v63.382q0 35.948-17.974 66.693-17.974 30.272-48.719 48.246Q212.647 447 176.699 447H55.138V117.792zm115.412 132.913q0-31.218-15.609-57.706-15.609-26.488-42.57-42.097-26.488-15.609-57.706-15.609H72.639v294.206h103.587q31.218 0 57.706-15.609 26.961-15.609 42.57-42.097 15.609-26.488 15.609-57.706zM416.62 117.792h231.77v17.501H434.123v133.386h186.362v17.501H434.122v143.319H648.39V447H416.62zM753.98 117.792L879.8 423.823l125.818-306.031h18.447L888.786 447h-18.447L735.06 117.792z" />
		</g>
		<path d="M53.017 546.059h975.639" stroke-width="15" />
		<g aria-label="row">
			<path d="M241.433 655.671q28.38 13.244 44.462 39.259 16.555 26.015 16.555 57.706 0 36.894-22.704 66.22-22.231 28.853-57.233 38.313L306.234 974h-20.812l-80.883-113.52-15.136.473H70.68V974H53.179V644.792h125.345q20.812 0 35.475 2.838 15.136 2.365 27.434 8.041zm-47.3 187.781q24.596 0 45.408-12.298t33.11-33.11q12.298-20.812 12.298-45.408 0-27.434-14.663-49.665-14.19-22.231-39.732-33.11-18.447-7.568-52.03-7.568H70.68v181.159zM520.14 637.697q36.895 0 68.113 18.447 31.218 17.974 49.192 49.192 18.447 31.218 18.447 68.112v71.896q0 36.894-18.447 68.112-17.974 31.218-49.192 49.665-31.218 17.974-68.112 17.974-36.894 0-68.112-17.974-31.218-18.447-49.665-49.665-17.974-31.218-17.974-68.112v-71.896q0-36.894 17.974-68.112 18.447-31.218 49.665-49.192 31.218-18.447 68.112-18.447zM401.89 845.344q0 32.164 15.61 59.598 16.082 26.961 43.043 43.043 27.434 15.609 59.598 15.609t59.125-15.609q27.434-16.082 43.043-43.043 16.082-27.434 16.082-59.598v-71.896q0-32.164-16.082-59.125-15.61-27.434-43.043-43.043-26.961-16.082-59.125-16.082t-59.598 16.082q-26.961 15.609-43.043 43.043-15.61 26.961-15.61 59.125zM1026.362 644.792L937.91 974h-18.447l-49.192-183.051L821.08 974h-18.447l-88.451-329.208h17.974l79.464 296.571 49.665-183.997-30.272-112.574h17.974l30.272 112.574 49.665 183.997 79.464-296.571z" />
		</g>
	</g>
</svg>
